<svg width="91" height="69" viewBox="0 0 91 69" version="1.1" xmlns="http://www.w3.org/2000/svg" xmlns:xlink="http://www.w3.org/1999/xlink">
<g id="Canvas" fill="none">
<g id="Group">
<g id="Vector">
<path d="M 45.5993 23.0841C 46.4709 23.9027 47.3426 24.7759 48.2143 25.649C 57.2579 17.6815 70.8777 8.56787 88.1477 5.07524C 88.5835 3.7655 89.6186 1.03688 90 0.0545724C 86.7312 0.545724 65.2119 4.69323 45.5993 23.0841ZM 45.5448 33.562C 46.4165 34.4898 47.2337 35.4175 47.9964 36.3452C 54.3705 29.6874 64.2312 21.7198 78.3414 16.0989L 78.8317 15.8806L 77.3608 19.9735L 77.2518 20.0281C 77.1429 20.0827 65.4843 25.5399 58.8378 31.4883C 66.7918 26.4131 73.9286 22.4293 83.6804 20.1918C 84.661 17.2995 86.7857 11.6785 87.385 10.0959C 84.0073 10.8599 61.8341 16.4263 45.5448 33.562ZM 42.0036 37.655C 40.8051 39.183 39.6065 40.7656 38.5169 42.4574L 38.3535 42.7302L 35.3571 39.4559L 35.4116 39.2922C 35.4661 39.183 38.6259 34.8172 44.4007 29.1963C 43.5835 28.4322 42.7119 27.6137 41.8402 26.8496C 38.1356 30.7789 34.54 35.1992 31.2167 40.2745L 38.6804 48.3512C 39.2252 47.4234 41.023 44.3674 44.4007 40.329C 43.638 39.5104 42.8753 38.5827 42.0036 37.655ZM 53.1719 32.5797C 52.4092 33.2892 51.6465 33.9986 50.8838 34.7081C 53.2809 37.4367 54.5339 39.183 54.5884 39.2376L 54.6973 39.4013L 51.701 42.6756L 51.5375 42.4028C 48.9225 38.4736 45.9806 34.9809 42.8753 31.9249C 42.0036 32.8526 41.132 33.7258 40.3148 34.6535C 47.0702 41.3113 50.5024 46.9869 51.2651 48.3512L 58.7833 40.2745C 56.9855 37.5458 55.1332 34.9809 53.1719 32.5797ZM 47.1247 30.7243C 47.9419 29.9057 48.7591 29.1417 49.6308 28.4322C 28.8196 5.45724 3.54116 0.600297 0 0C 0.381356 1.03688 1.41646 3.7655 1.8523 5.02066C 22.9903 9.33189 38.5714 22.0473 47.1247 30.7243ZM 12.6392 20.0281C 12.7482 20.0827 24.4068 25.5399 31.0533 31.4883C 23.1538 26.4676 15.9625 22.4293 6.26513 20.1918C 5.2845 17.2995 3.15981 11.6785 2.56053 10.0959C 5.61138 10.8053 23.6985 15.2803 39.1162 28.4868C 38.299 29.4145 37.4818 30.3423 36.7191 31.3246C 30.563 25.9765 22.3366 20.3555 11.6586 16.0989L 11.1683 15.8806L 12.6392 19.9735L 12.6392 20.0281Z" transform="translate(0.5 0)" fill="#BF8850"/>
</g>
<g id="Vector_2">
<path d="M 8.93462 14.6254C 8.60775 16.0989 7.89951 16.6992 6.80993 16.6992C 5.66586 16.6992 5.01211 16.0989 4.68523 14.5708C 4.52179 13.8068 4.41283 13.0428 4.35835 12.1697C 4.30387 11.2965 4.30387 10.1505 4.30387 8.67701C 4.30387 5.78468 4.35835 4.31122 4.68523 2.78319C 5.01211 1.30974 5.72034 0.654869 6.80993 0.654869C 7.89951 0.654869 8.60775 1.25517 8.93462 2.78319C 9.2615 4.25665 9.37046 5.78468 9.37046 8.67701C 9.37046 11.5694 9.2615 13.0974 8.93462 14.6254ZM 7.19128 1.66542e-06C 2.50605 1.66542e-06 2.07822e-07 3.05606 2.07822e-07 9.05902C 2.07822e-07 14.5708 2.1247 17.354 6.37409 17.354C 11.1683 17.354 13.5109 14.3525 13.5109 8.29501C 13.5654 2.78319 11.4407 1.66542e-06 7.19128 1.66542e-06Z" transform="translate(17.1707 51.4618)" fill="white"/>
</g>
<g id="Vector_3">
<path d="M 9.96973 16.3172C 8.60775 16.3172 8.44431 16.2626 8.44431 15.4986L 8.44431 0.545725L 10.0787 0.545725C 11.9855 0.545725 12.5303 1.25517 12.5303 3.54721C 12.5303 3.98379 13.0206 3.98379 13.0206 3.54721L 13.0206 0.382006C 13.0206 0.109144 12.9116 8.32709e-07 12.6392 8.32709e-07L 0.381356 8.32709e-07C 0.108959 8.32709e-07 -4.15645e-07 0.163719 -4.15645e-07 0.491154L -4.15645e-07 3.60178C -4.15645e-07 4.03836 0.435835 4.03836 0.435835 3.60178C 0.435835 1.36431 1.30751 0.600297 3.21429 0.600297L 4.52179 0.600297L 4.52179 15.6077C 4.52179 16.3717 4.41283 16.4263 2.99637 16.4263C 2.61501 16.4263 2.61501 16.8629 2.99637 16.8629L 9.91525 16.8629C 10.3511 16.8083 10.3511 16.3172 9.96973 16.3172Z" transform="translate(31.9891 51.7892)" fill="white"/>
</g>
<g id="Vector_4">
<path d="M 3.93614 10.5325L 6.11531 2.45576L 8.29449 10.5325L 3.93614 10.5325ZM 14.7775 16.7537C 14.1238 16.7537 13.9604 16.6446 13.7424 15.826L 9.54752 0.382009C 9.49304 0.163719 9.3296 -8.32709e-07 9.0572 -8.32709e-07C 8.94824 -8.32709e-07 8.78481 1.66705e-06 8.51241 0.109147C 7.96761 0.218291 6.87803 0.545726 6.38771 0.654871C 6.11531 0.654871 5.95188 0.927732 5.78844 1.30974L 2.08384 14.5708C 1.59352 16.2626 1.32113 16.7537 0.286017 16.7537C -0.095339 16.7537 -0.095339 17.1903 0.286017 17.1903L 5.18917 17.1903C 5.57052 17.1903 5.57052 16.7537 5.18917 16.7537C 2.95551 16.7537 2.46519 16.0443 2.84655 14.5163L 3.7727 11.1328L 8.45793 11.1328L 9.76544 15.7714C 9.98336 16.4809 9.71096 16.6992 9.0572 16.6992C 8.67585 16.6992 8.67585 17.1357 9.0572 17.1357L 14.7775 17.1357C 15.2134 17.2449 15.2134 16.7537 14.7775 16.7537Z" transform="translate(43.7975 51.3526)" fill="white"/>
</g>
<g id="Vector_5">
<path d="M 9.37046 -8.32709e-07C 8.11743 -8.32709e-07 7.35472 0.709443 7.35472 1.74632C 7.35472 2.94691 8.22639 3.65635 9.2615 3.65635C 10.1332 3.65635 10.569 3.27434 10.569 2.51033C 10.569 2.23747 10.46 2.01918 10.1876 1.80089C 9.91525 1.63717 9.8063 1.41888 9.8063 1.30974C 9.8063 0.654869 11.4407 0.982304 11.3317 2.67405C 11.3317 3.92922 10.4056 6.16668 8.60775 9.33188C 8.38983 8.56787 7.89951 7.31271 7.19128 5.67553C 6.48305 4.03836 5.99273 2.83777 5.77482 2.07375C 5.66586 1.69175 5.72034 1.47346 5.99274 1.47346L 6.21065 1.47346C 6.64649 1.47346 6.64649 1.03688 6.21065 1.03688L 0.708234 1.03688C 0.326878 1.03688 0.326878 1.47346 0.708234 1.47346L 0.926148 1.47346C 1.36198 1.47346 1.52542 1.63717 1.68886 2.1829C 1.90678 2.89234 2.56053 4.69323 3.7046 7.531C 4.79419 10.3688 5.5569 12.4971 6.04721 13.916C 5.17554 15.7714 4.14044 16.9175 2.61501 16.9175C 1.41647 16.9175 0.817191 16.4263 0.817191 15.3894C 0.817191 14.8437 0.926148 14.5708 1.19855 14.5708C 1.36198 14.5708 1.47094 14.7346 1.47094 15.0074C 1.52542 15.7714 1.8523 16.1534 2.56053 16.1534C 3.4322 16.1534 3.86804 15.7169 3.86804 14.7346C 3.86804 13.7523 3.15981 13.152 2.1247 13.152C 0.871671 13.152 0 13.916 0 15.2803C 0 16.8083 1.03511 17.5723 2.45157 17.5723C 3.59564 17.6815 4.57627 16.972 5.2845 16.3172C 5.61138 15.9897 6.42857 14.68 6.64649 14.298C 6.75545 14.0797 6.97337 13.6431 7.35472 12.9882C 7.6816 12.3879 7.89952 11.8968 8.06295 11.6785C 9.5339 9.00445 10.569 7.03984 11.1138 5.7301C 11.6586 4.47494 11.931 3.49263 11.931 2.78319C 11.9855 0.982302 11.0593 -8.32709e-07 9.37046 -8.32709e-07Z" transform="translate(60.4274 51.3526)" fill="white"/>
</g>
</g>
</g>
</svg>